<?xml version="1.0" encoding="utf-8"?>

<svg version="1.1" id="Livello_1" xmlns="http://www.w3.org/2000/svg" xmlns:xlink="http://www.w3.org/1999/xlink" x="0px" y="0px"
	 viewBox="0 0 830.41 1170.037" enable-background="new 0 0 830.41 1170.037" xml:space="preserve">
<g>
	<g>
		<path fill="#FFFFFF" d="M407.72,286.117c-75.9,0-137.64,61.75-137.64,137.65s61.74,137.64,137.64,137.64
			s137.64-61.75,137.64-137.64S483.62,286.117,407.72,286.117"/>
		<path fill="#901480" d="M116.74,180.827c-1.215,2.319-0.321,5.183,1.998,6.399c0.001,0,0.002,0.001,0.002,0.001l145.84,84.8
			l0.34,0.18c1.586,0.875,3.534,0.754,5-0.31c0.466-0.326,0.866-0.736,1.18-1.21c0.153-0.22,0.284-0.454,0.39-0.7
			c28.13-49.785,77.068-84.364,133.39-94.25c0.193-0.012,0.384-0.046,0.57-0.1c2.43-0.545,4.011-2.894,3.6-5.35l-0.06-0.33
			l-30.9-165.85l-0.08-0.29c-0.128-0.684-0.416-1.328-0.84-1.88c-1.001-1.362-2.65-2.089-4.33-1.91l-0.4,0.08l0,0
			c-107.742,19.489-201.348,85.632-255.7,180.68"/>
		<path fill="#004AD0" d="M33.46,501.167c0.691,1.602,2.202,2.699,3.94,2.86c0.791,0.064,1.586-0.074,2.31-0.4l157.4-60.65
			l0.34-0.14c1.657-0.698,2.773-2.276,2.88-4.07c0.033-0.565-0.038-1.131-0.21-1.67c-0.078-0.26-0.182-0.511-0.31-0.75
			c-21.209-53.095-17.54-112.896,10-163c0.114-0.154,0.208-0.322,0.28-0.5c1.12-2.236,0.272-4.957-1.92-6.16l-0.29-0.15
			l-148.61-79.8l-0.26-0.13c-0.615-0.331-1.301-0.509-2-0.52c-1.69-0.06-3.285,0.781-4.19,2.21c-0.07,0.12-0.13,0.24-0.19,0.36l0,0
			c-52.253,96.215-59.278,210.614-19.19,312.5"/>
		<path fill="#0090FF" d="M233.5,764.437c2.532,0.664,5.123-0.85,5.788-3.382c0.001-0.003,0.001-0.005,0.002-0.008l50.19-161
			l0.1-0.36c0.486-1.727-0.058-3.58-1.4-4.77c-0.423-0.383-0.915-0.682-1.45-0.88c-0.249-0.101-0.507-0.178-0.77-0.23
			c-54.809-16.352-99.414-56.39-121.57-109.12c-0.053-0.181-0.126-0.356-0.22-0.52c-0.268-0.549-0.634-1.043-1.08-1.46
			c-1.343-1.208-3.258-1.542-4.93-0.86l-0.31,0.13l-154.79,67l-0.27,0.12c-0.64,0.277-1.206,0.702-1.65,1.24
			c-1.109,1.295-1.438,3.086-0.86,4.69c0,0.13,0.11,0.24,0.16,0.37l0,0c42.961,100.697,128.257,177.24,233,209.09"/>
		<path fill="#00AA00" d="M562.4,772.277c2.109-1.558,2.556-4.53,1-6.64l-94-140l-0.22-0.31c-1.41-1.969-4.085-2.545-6.18-1.33
			c-0.237,0.128-0.458,0.282-0.66,0.46c-47.09,32.447-106.23,42.114-161.2,26.35c-0.178-0.072-0.362-0.129-0.55-0.17
			c-0.595-0.13-1.208-0.15-1.81-0.06c-1.778,0.297-3.234,1.576-3.76,3.3l-0.09,0.33l-44.92,162.55v0.27
			c-0.179,0.673-0.203,1.377-0.07,2.06c0.317,1.661,1.494,3.029,3.09,3.59c0.13,0.047,0.264,0.084,0.4,0.11l0,0
			c105.404,29.646,218.522,11.155,309-50.51"/>
		<path fill="#FFE500" d="M776.53,521.027c0.073-2.618-1.983-4.803-4.6-4.89l-168.16-13.11h-0.37
			c-1.796-0.091-3.486,0.853-4.35,2.43c-0.399,0.736-0.599,1.563-0.58,2.4c-3.741,57.063-32.841,109.451-79.31,142.78
			c-0.171,0.093-0.329,0.207-0.47,0.34c-0.475,0.381-0.872,0.849-1.17,1.38c-0.885,1.577-0.783,3.523,0.26,5l0.19,0.28l99.73,136
			l0.17,0.22c0.417,0.562,0.958,1.021,1.58,1.34c1.503,0.779,3.308,0.703,4.74-0.2c0.111-0.074,0.218-0.154,0.32-0.24l0,0
			c88.615-64.297,144.258-164.491,152-273.7"/>
		<path fill="#FF7D00" d="M712.95,196.547c-1.318-1.127-3.141-1.456-4.77-0.86c-0.744,0.286-1.407,0.749-1.93,1.35l-116.06,122.4
			l-0.26,0.28c-1.195,1.342-1.524,3.245-0.85,4.91c0.228,0.516,0.542,0.99,0.93,1.4c0.179,0.198,0.377,0.379,0.59,0.54
			c41.983,38.829,64.366,94.423,61,151.51c-0.02,0.193-0.02,0.387,0,0.58c0.001,0.608,0.113,1.212,0.33,1.78
			c0.673,1.657,2.218,2.796,4,2.95h0.33l168.47,8.16h0.3c0.688,0.03,1.373-0.104,2-0.39c1.551-0.669,2.629-2.113,2.83-3.79
			c0-0.14,0-0.27,0-0.41l0,0c5.839-109.302-36.933-215.595-116.85-290.39"/>
		<path fill="#FF0000" d="M418.06,45.707c-1.702,0.332-3.086,1.567-3.61,3.22c-0.241,0.756-0.286,1.562-0.13,2.34l24.69,166.87
			l0.07,0.37c0.319,1.766,1.615,3.197,3.34,3.69c0.542,0.159,1.108,0.216,1.67,0.17c0.27-0.022,0.537-0.065,0.8-0.13
			c56.451-9.046,113.986,7.655,156.82,45.52c0.129,0.142,0.273,0.27,0.43,0.38c0.478,0.382,1.025,0.67,1.61,0.85
			c1.735,0.498,3.602-0.038,4.81-1.38l0.22-0.24l110.41-127.5l0.18-0.24c0.452-0.53,0.777-1.156,0.95-1.83
			c0.427-1.635-0.044-3.375-1.24-4.57l-0.31-0.26l0,0c-82.41-72.087-192.482-104.034-300.68-87.27"/>
		<path d="M407.72,284.217c-76.95,0-139.55,62.6-139.55,139.55s62.6,139.54,139.55,139.54s139.54-62.6,139.54-139.54
			S484.66,284.217,407.72,284.217 M509.09,502.427c2.13-5.67,2.8-12.29,3.5-17.42c-2.848,2.736-5.882,5.272-9.08,7.59
			c-8.915,6.577-19.106,11.216-29.92,13.62l-27-29.42l-0.38,0.28l19.56,34.62c-5.647,9.689-13.281,18.073-22.4,24.6
			c-3.186,2.313-6.528,4.404-10,6.26c5.07,0.92,11.52,2.33,17.55,2.07c-27.935,9.98-58.465,9.98-86.4,0
			c6,0.28,12.52-1.14,17.61-2.06c-3.471-1.858-6.812-3.949-10-6.26c-9.117-6.528-16.754-14.908-22.41-24.59l19.54-34.69l-0.37-0.27
			l-27,29.43c-10.798-2.398-20.976-7.027-29.88-13.59c-3.207-2.307-6.247-4.837-9.1-7.57c0.68,5.16,1.35,11.81,3.5,17.5
			c-17.538-22.496-27.043-50.215-27-78.74c0-1.41,0.06-2.8,0.11-4.19c1.54,6,5,12,7.57,16.7c0.686-3.887,1.648-7.72,2.88-11.47
			c3.411-10.732,9.062-20.616,16.58-29l38.6,7.83l0.15-0.44l-36.09-16.47c-1.027-10.998,0.243-22.089,3.73-32.57
			c1.207-3.767,2.681-7.443,4.41-11c-4.95,2.37-11.52,5.23-16.36,9.39c17.031-25.487,42.608-44.05,72.12-52.34
			c-5.59,3.28-10.44,8.77-14.29,12.82c3.904-0.533,7.84-0.801,11.78-0.8c11.18-0.082,22.252,2.197,32.49,6.69l4.48,39h0.44l4.47-39
			c10.222-4.474,21.272-6.743,32.43-6.66c3.95,0,7.896,0.267,11.81,0.8c-3.87-4-8.71-9.51-14.27-12.8
			c29.455,8.29,54.985,26.817,72,52.25c-4.82-4.12-11.35-7-16.27-9.32c1.717,3.563,3.19,7.238,4.41,11
			c3.496,10.496,4.76,21.607,3.71,32.62l-36,16.46l0.14,0.43l38.57-7.92c7.511,8.381,13.15,18.268,16.54,29
			c1.23,3.75,2.193,7.583,2.88,11.47c2.52-4.68,6-10.59,7.55-16.58c0,1.35,0.1,2.71,0.1,4.07c0.028,28.498-9.476,56.187-27,78.66"/>
		<polygon points="351.36,405.387 372.9,471.707 442.63,471.707 464.17,405.387 407.76,364.407 		"/>
	</g>
	<g>
		<polygon points="2.78,930.027 2.78,1117.227 110.24,1117.227 110.24,1074.727 51.4,1074.727 51.4,930.027 		"/>
		<path d="M199.71,1006.267c-21.64,0-35.51,16.13-35.51,35.92c0,20.79,13.14,37.89,34.06,37.89c20.18,0,36.95-14.9,36.95-36.66
			C235.21,1021.417,219.65,1006.267,199.71,1006.267 M118.26,1042.927c0-41.79,30.88-78.69,72.46-78.69c18.21,0,29.65,6.11,43,18.33
			v-15.38h44.75v150h-45.46v-14.66c0,0-16.3,18.34-44.73,18.34c-41.58,0-70-29.84-70-78"/>
		<polygon points="412.71,1117.227 305.24,1117.227 305.24,930.027 353.87,930.027 353.87,1074.727 412.71,1074.727 		"/>
		<path d="M478.11,1117.217h-45.23v-150h45.23V1117.217z M428.51,929.027c-0.392-15.105,11.536-27.669,26.641-28.06
			s27.669,11.536,28.061,26.641c0.008,0.306,0.011,0.613,0.008,0.919c0.017,15.37-12.429,27.844-27.799,27.86
			c-0.067,0-0.134,0-0.201,0c-14.83,0-26.74-12-26.74-27.36"/>
		<path d="M573.17,1003.127c-21.15,0-31.62,17.36-31.62,35.93c0,19.3,11.44,35.2,31.38,35.2c22.62,0,34.75-18.09,34.75-35
			c0-20-11.18-36.18-34.51-36.18 M497.55,1039.257c0-40.57,25.78-75,65.18-75c19,0,31.84,6.11,44.71,19.79v-16.82h43.3v132.2
			c0,46.43-34.79,70.61-76.6,70.61c-36.72,0-68.81-18.56-73.65-52.3h50.81c6.29,10.27,12.61,12.21,23.82,12.21
			c15.8,0,30.37-7.31,30.37-23.68c0.164-3.748,0.087-7.502-0.23-11.24c-8.76,7.82-25,17.35-42.79,17.35
			c-38.65,0-64.92-32.26-64.92-73.07"/>
		<path d="M751.64,1006.227c-21.65,0-35.5,16.13-35.5,35.92c0,20.79,13.12,37.89,34,37.89c20.18,0,37-14.9,37-36.66
			c0-22-15.55-37.15-35.49-37.15 M670.19,1042.887c0-41.79,30.87-78.69,72.45-78.69c18.23,0,29.67,6.11,43,18.33v-15.38h44.77v150
			h-45.47v-14.66c0,0-16.29,18.34-44.74,18.34c-41.57,0-70-29.84-70-78"/>
	</g>
</g>
</svg>
